<svg id="Layer_1" data-name="Layer 1" xmlns="http://www.w3.org/2000/svg" viewBox="0 0 1200 1200"><defs><style>.cls-1{fill:#b49c5f;}</style></defs><path class="cls-1" d="M484.64,534.31A59.27,59.27,0,0,0,499.91,568a117.16,117.16,0,0,0,21.69,18.64c1.31.88,4.09,2.36,7.62,4.15a340.24,340.24,0,0,0,38.18,16V580.48c-3.71-1.36-7.17-2.66-10.23-3.88A107.39,107.39,0,0,1,538.24,567c-1.63-.84-2.9-1.55-3.6-2a87,87,0,0,1-8.65-6.61c-.61-.49-1.27-1-1.87-1.45-7.07-5.74-11.7-12.37-14-19.84a47.08,47.08,0,0,1-2.43-10.27c-.14-1.19-.25-2.4-.33-3.64-.05-.89-.09-1.78-.09-2.7a45.48,45.48,0,0,1,10.07-29.06l.45-.53a55.91,55.91,0,0,1,4.3-5,35.36,35.36,0,0,1,3.43-3A95.86,95.86,0,0,1,578,462.46c5-.37,10.09-.54,15.37-.54h.38a138.69,138.69,0,0,1,55,11.33c1,.45,1.76.78,2,.91q20.88,12.85,31.87,29h4V469.22a228.13,228.13,0,0,0-24.43-9c-7.21-2.22-14.66-4.2-22.47-5.87q-25.56-5.52-46.3-5.52-32.24,0-57,9.76t-38.53,27.13a62.46,62.46,0,0,0-13.81,39.86c0,1.24.06,2.48.13,3.7C484.3,531,484.45,532.65,484.64,534.31Z"/><path class="cls-1" d="M719.83,682.55c-.09-1.82-.25-3.62-.46-5.39a60.05,60.05,0,0,0-15.81-34.37,121.61,121.61,0,0,0-39.69-28.41c-3.4-1.56-7.08-3.14-10.94-4.76q-20.59-7.92-49.74-17c-4.67-1.49-9.06-2.92-13.25-4.31.23,8.75.35,17.5.45,26.25,4.67,1.38,9.48,2.8,14.35,4.26h0c14.24,4.25,28.15,8.53,34.72,10.92q23.32,8.43,39.69,22.61a49.77,49.77,0,0,1,9.52,10.85A46.57,46.57,0,0,1,697.11,685c.17,1.38.27,2.77.35,4.19,0,.89.1,1.77.1,2.69q0,17.37-11.77,32.31c-7,8.84-16.54,16.13-28.57,21.87a93.2,93.2,0,0,1-28,9.11c-3.11.47-6.29.85-9.5,1.17-1.39.14-2.77.27-4.18.38-1.14.09-2.31.15-3.48.22-.57,0-1.16.08-1.76.1-3.67.19-7.37.32-11.18.32-9,0-17.46-.25-25.32-.75A118.75,118.75,0,0,1,529.48,745c-.82-.4-1.51-.74-2-1-9.19-4.91-16.3-9.82-21.24-14.73a242.75,242.75,0,0,1-22.14-25.86h-4v34.35a213.17,213.17,0,0,0,48.3,23.73q25.92,8.91,70.79,8.9,35.05,0,62.68-11.65t42.89-31q15.24-19.27,15.21-41.74C720,684.85,719.89,683.71,719.83,682.55Z"/><path class="cls-1" d="M599.15,758.67c3.64,0,7.18-.13,10.7-.3l3.36-.21c.58-12.55.81-25.63.81-38.73V489.17H584.45V742.78c-.09,5.71-.24,10.73-.41,15.49C588.94,758.46,593.82,758.67,599.15,758.67Z"/><path class="cls-1" d="M599.15,787.33c-6,0-11.6-.2-17.1-.44-.35,3.29-.73,6.56-1.15,9.89-.29,1.75-.59,3.67-.92,5.82q-3.86,25.2-16.08,43.15t-34.8,28.34a94.92,94.92,0,0,1-14.9,5.22c-1.27.35-2.54.71-3.88,1-1.12.25-2.3.46-3.47.71v8.31c21.61-.66,39.32-4.8,53-12.56a89.58,89.58,0,0,0,30.3-27.61c1.6-2.34,3.12-4.73,4.51-7.22q12.24-22.1,16.07-53.1c.08-.63.12-1.33.19-2C607.1,787.18,603.17,787.33,599.15,787.33Z"/></svg>