<svg id="Layer_1" data-name="Layer 1" xmlns="http://www.w3.org/2000/svg" viewBox="0 0 1200 1200"><defs><style>.cls-1{fill:#b49c5f;}</style></defs><path class="cls-1" d="M766.18,683a75.37,75.37,0,0,0-13.66-35.51,81.42,81.42,0,0,0-15.45-17.63q-26.54-23-64.46-36.7c-8.31-3-23.89-7.92-41.33-13.21V738.8c0,20.58-.36,41.1-1.24,60.85,1.27-.07,2.52-.15,3.76-.25,2.28-.17,4.52-.38,6.78-.62,5.22-.51,10.38-1.13,15.43-1.89a151.59,151.59,0,0,0,45.42-14.8c19.52-9.31,35-21.14,46.38-35.51q19.16-24.23,19.12-52.45c0-1.49-.08-2.92-.17-4.37C766.63,687.46,766.46,685.2,766.18,683Z"/><path class="cls-1" d="M600,134.3,212.62,358V805.26L513.46,979a125.71,125.71,0,0,0,36.44-35Q569.79,914.8,576,873.85c.54-3.49,1-6.6,1.5-9.44.67-5.41,1.29-10.72,1.86-16.07,8.93.39,18,.73,27.76.73,6.53,0,12.92-.25,19.2-.68-.12,1-.19,2.17-.31,3.19q-6.24,50.35-26.09,86.22c-2.26,4.05-4.73,7.93-7.33,11.72a145.43,145.43,0,0,1-49.2,44.83c-.55.31-1.13.6-1.7.91l58.3,33.66L987.38,805.26V358ZM442.71,359.4q22.46-28.23,62.56-44.06t92.51-15.83q33.63,0,75.17,8.95c12.69,2.71,24.79,5.93,36.49,9.53a369.83,369.83,0,0,1,39.67,14.56V387.6h-6.52q-17.8-26.22-51.75-47c-.37-.21-1.54-.75-3.22-1.47a225,225,0,0,0-89.23-18.4h-.61q-12.85,0-25,.88a155.6,155.6,0,0,0-85.26,33.14,57.31,57.31,0,0,0-5.56,4.84,89.42,89.42,0,0,0-7,8.1l-.72.85a73.92,73.92,0,0,0-16.35,47.19c0,1.5.06,2.95.15,4.39.13,2,.3,4,.53,5.91a76.11,76.11,0,0,0,3.95,16.67c3.75,12.12,11.27,22.89,22.74,32.22,1,.81,2.05,1.56,3.05,2.35a141.84,141.84,0,0,0,14,10.74c1.13.75,3.2,1.9,5.84,3.26A174.27,174.27,0,0,0,539,506.9c5,2,10.58,4.1,16.6,6.3v42.72c-21.1-7.57-41.92-15.91-62-26-5.73-2.9-10.25-5.31-12.38-6.74A190.22,190.22,0,0,1,446,492.92c-14.06-15.43-22.25-33.68-24.78-54.7-.32-2.68-.56-5.37-.71-8.1-.1-2-.21-4-.21-6A101.43,101.43,0,0,1,442.71,359.4Zm335.84,393q-24.75,31.33-69.64,50.26T607.13,821.61q-72.86,0-114.95-14.45a346.33,346.33,0,0,1-78.41-38.54V712.84h6.52a392.64,392.64,0,0,0,36,42c8,8,19.56,15.95,34.48,23.92.84.44,1.94,1,3.29,1.64a192.83,192.83,0,0,0,72,18.84c5.37.34,10.93.61,16.64.8.26-7.19.48-14.76.6-23.31V364.94h48V538.43q36.15,11.67,63.18,22.08c6.27,2.64,12.23,5.2,17.76,7.73q37.85,17.24,64.45,46.13a97.58,97.58,0,0,1,25.66,55.8q.52,4.32.75,8.76c.11,1.88.21,3.73.17,5.71Q803.25,721.12,778.55,752.42Z"/></svg>