<svg id="Layer_1" data-name="Layer 1" xmlns="http://www.w3.org/2000/svg" viewBox="0 0 1200 1200"><defs><style>.cls-1{fill:#f5f1e9;}.cls-2{fill:#231f20;}</style></defs><rect class="cls-1" x="109.21" y="33.28" width="981.58" height="1133.43"/><polygon class="cls-2" points="261.17 863.2 254.25 875.18 277.53 875.18 289.16 895.34 296.08 883.36 284.44 863.2 261.17 863.2"/><polygon class="cls-2" points="361.52 883.36 317.16 806.53 228.45 806.53 188.81 875.18 202.64 875.18 235.36 818.51 310.25 818.51 347.69 883.36 314.97 940.03 321.88 952.01 361.52 883.36"/><polygon class="cls-2" points="305.52 923.67 328.8 883.36 300.8 834.87 244.81 834.87 221.53 875.18 235.37 875.18 251.72 846.84 293.89 846.84 314.97 883.36 298.61 911.69 305.52 923.67"/><polygon class="cls-2" points="394.23 883.36 333.52 778.2 212.09 778.19 156.09 875.18 169.93 875.18 219 790.17 326.6 790.17 380.4 883.36 331.33 968.36 338.24 980.34 394.23 883.36"/><polygon class="cls-2" points="340.44 1033.22 317.16 1033.22 303.33 1033.22 303.33 1033.22 275.7 1033.22 195.73 1033.22 174.65 1069.73 118.66 1166.71 118.66 1166.72 132.49 1166.72 202.65 1045.2 333.52 1045.19 340.44 1033.22"/><polygon class="cls-2" points="354.61 1041.4 282.25 1166.72 296.08 1166.72 361.52 1053.37 354.61 1041.4"/><polygon class="cls-2" points="130.29 353.16 109.21 389.67 109.21 413.62 137.2 365.14 244.81 365.13 293.89 450.14 307.72 450.14 251.72 353.16 130.29 353.16"/><polygon class="cls-2" points="113.93 891.54 109.21 899.71 109.21 923.66 120.84 903.52 261.17 903.52 326.61 1016.86 340.43 1016.86 268.08 891.54 114.73 891.54 113.93 891.54"/><polygon class="cls-2" points="181.56 741.67 109.21 616.36 109.21 640.32 167.74 741.68 109.21 843.05 109.21 867 137.87 817.36 181.56 741.67"/><polygon class="cls-2" points="291.36 1118.23 244.81 1118.22 216.81 1166.72 230.64 1166.72 251.72 1130.2 284.44 1130.2 291.36 1118.23"/><polygon class="cls-2" points="132.48 1110.05 109.21 1069.73 109.21 1093.69 125.57 1122.02 132.48 1110.05"/><polygon class="cls-2" points="324.08 1061.56 212.09 1061.55 151.38 1166.72 165.2 1166.72 219.01 1073.53 317.16 1073.53 324.08 1061.56"/><polygon class="cls-2" points="267.17 1016.86 275 1016.86 235.36 948.21 146.65 948.21 109.21 1013.06 109.21 1037.02 141.93 1093.69 148.6 1082.13 148.84 1081.71 116.12 1025.04 153.56 960.19 228.45 960.19 261.17 1016.86 267.17 1016.86"/><polygon class="cls-2" points="307.72 1016.86 251.72 919.88 130.29 919.88 109.21 956.38 109.21 980.34 137.2 931.85 244.81 931.85 293.89 1016.86 307.72 1016.86"/><polygon class="cls-2" points="109.21 729.7 109.21 753.65 116.12 741.68 109.21 729.7"/><polygon class="cls-2" points="109.21 1150.35 115.47 1139.52 116.13 1138.38 109.21 1126.4 109.21 1150.35"/><polygon class="cls-2" points="513.48 733.5 585.83 608.17 572 608.18 506.56 721.52 366.24 721.52 296.08 600 361.52 486.65 354.61 474.68 282.25 600 359.33 733.5 436.4 733.5 513.48 733.5"/><polygon class="cls-2" points="307.72 1089.89 228.45 1089.89 184.09 1166.72 197.92 1166.72 235.36 1101.86 300.8 1101.87 307.72 1089.89"/><polygon class="cls-2" points="261.17 1146.56 249.53 1166.72 263.36 1166.72 263.36 1166.71 275 1146.56 261.17 1146.56"/><polygon class="cls-2" points="109.21 673.03 109.21 696.98 135.02 741.67 109.21 786.38 109.21 810.33 148.84 741.67 109.21 673.03"/><polygon class="cls-2" points="167.73 1025.04 174.65 1037.02 186.29 1016.86 209.56 1016.86 202.64 1004.88 179.37 1004.88 167.73 1025.04"/><polygon class="cls-2" points="719.24 166.78 733.07 166.78 709.79 126.47 653.8 126.47 625.81 174.96 649.08 215.28 656 203.3 639.63 174.97 660.72 138.45 702.88 138.45 719.24 166.78"/><polygon class="cls-2" points="971.55 183.14 957.72 183.14 981 223.45 1036.99 223.45 1064.99 174.96 1041.71 134.65 1034.8 146.63 1051.16 174.96 1030.08 211.48 987.91 211.48 971.55 183.14"/><polygon class="cls-2" points="798.51 166.78 742.52 69.8 621.08 69.8 560.36 174.96 616.36 271.95 623.28 259.97 574.19 174.96 627.99 81.78 735.6 81.78 784.68 166.78 798.51 166.78"/><polygon class="cls-2" points="658.52 174.96 665.44 186.94 677.08 166.78 700.35 166.78 693.43 154.81 670.16 154.81 658.52 174.96"/><polygon class="cls-2" points="403.69 559.69 380.41 600 408.41 648.49 464.4 648.49 487.68 608.18 473.84 608.18 457.49 636.52 415.32 636.52 394.24 600 410.6 571.66 403.69 559.69"/><polygon class="cls-2" points="908.64 81.77 955.19 81.77 983.18 33.28 969.36 33.28 948.28 69.8 915.56 69.8 908.64 81.77"/><polygon class="cls-2" points="1032.27 174.96 1025.35 162.98 1017.21 177.09 1013.71 183.14 1013.71 183.14 1004.88 183.14 990.44 183.14 997.36 195.12 1020.63 195.12 1032.27 174.96"/><polygon class="cls-2" points="950.47 33.28 936.64 33.28 925 53.43 938.83 53.44 950.47 33.28"/><polygon class="cls-2" points="937.3 183.14 925 183.14 964.64 251.79 1053.35 251.78 1090.79 186.94 1090.79 162.98 1058.07 106.31 1051.26 118.1 1051.15 118.29 1083.88 174.96 1046.44 239.81 971.55 239.81 938.83 183.14 937.3 183.14"/><polygon class="cls-2" points="757.96 166.78 765.79 166.78 726.15 98.14 637.44 98.14 593.08 174.96 632.72 243.61 639.4 232.05 639.63 231.64 606.91 174.96 644.36 110.11 719.24 110.11 751.96 166.78 757.96 166.78"/><polygon class="cls-2" points="347.69 600 392.05 676.83 480.76 676.83 520.4 608.18 506.56 608.18 473.85 664.85 398.96 664.85 361.52 600 394.24 543.33 387.32 531.35 347.69 600"/><polygon class="cls-2" points="628.66 534 672.35 458.32 600 333 593.44 344.35 593.08 344.98 658.53 458.32 588.37 579.84 448.04 579.84 382.6 466.5 368.77 466.5 441.13 591.82 595.28 591.82 628.66 534"/><polygon class="cls-2" points="314.97 600 375.69 705.16 497.12 705.17 553.12 608.18 539.28 608.18 490.2 693.19 382.6 693.18 328.8 600 377.88 514.99 370.96 503.01 314.97 600"/><polygon class="cls-2" points="448.04 620.16 454.96 608.18 431.68 608.18 420.05 588.02 413.13 600 424.77 620.16 448.04 620.16"/><polygon class="cls-2" points="831.22 450.14 824.32 438.16 693.43 438.17 623.28 316.64 693.44 195.12 824.31 195.12 831.23 183.14 807.95 183.14 794.12 183.14 794.13 183.15 766.49 183.14 686.52 183.14 665.44 219.65 609.45 316.64 686.52 450.14 831.22 450.14"/><polygon class="cls-2" points="446.51 466.5 434.21 466.5 473.85 535.15 562.56 535.14 606.91 458.32 567.28 389.67 560.47 401.46 560.36 401.65 593.09 458.32 555.65 523.17 480.76 523.17 448.04 466.5 446.51 466.5"/><polygon class="cls-2" points="480.76 466.5 466.93 466.5 490.2 506.81 546.2 506.81 574.2 458.32 550.92 418 544.01 429.98 560.37 458.32 539.28 494.83 497.12 494.83 480.76 466.5"/><polygon class="cls-2" points="401.49 466.5 457.49 563.48 578.92 563.48 639.63 458.32 583.64 361.33 576.73 373.31 625.81 458.32 572.01 551.5 464.4 551.5 415.32 466.5 401.49 466.5"/><polygon class="cls-2" points="541.48 458.32 534.56 446.34 526.41 460.45 522.92 466.5 522.92 466.5 514.08 466.5 499.65 466.5 506.57 478.47 529.84 478.48 541.48 458.32"/><polygon class="cls-2" points="267.17 450.14 275 450.14 235.36 381.49 146.65 381.5 109.21 446.34 109.21 470.3 141.93 526.97 148.6 515.41 148.84 515 116.12 458.32 153.56 393.47 228.45 393.47 261.17 450.14 267.17 450.14"/><polygon class="cls-2" points="513.48 749.86 368.78 749.86 372.76 756.78 375.69 761.84 506.56 761.83 576.72 883.36 506.56 1004.88 375.69 1004.88 368.77 1016.85 392.05 1016.85 405.88 1016.85 457.49 1016.85 471.31 1016.85 513.48 1016.85 558.87 938.24 567.28 923.67 567.28 923.67 590.55 883.36 563.29 836.13 513.48 749.86"/><polygon class="cls-2" points="401.49 1033.21 457.49 1130.2 578.92 1130.2 639.63 1025.03 583.64 928.05 576.73 940.02 625.81 1025.03 572.01 1118.22 464.4 1118.22 415.32 1033.21 401.49 1033.21"/><polygon class="cls-2" points="446.51 1033.22 434.21 1033.22 473.85 1101.86 562.56 1101.86 606.91 1025.04 567.28 956.39 560.47 968.18 560.36 968.37 593.09 1025.04 555.65 1089.89 480.76 1089.89 448.04 1033.22 446.51 1033.22"/><polygon class="cls-2" points="541.48 1025.04 534.56 1013.06 526.41 1027.17 522.92 1033.21 522.92 1033.22 514.08 1033.22 499.65 1033.22 506.57 1045.19 529.84 1045.19 541.48 1025.04"/><polygon class="cls-2" points="1032.27 741.68 1025.35 729.7 1017.21 743.81 1013.71 749.86 1013.71 749.86 1004.88 749.86 990.44 749.86 997.36 761.83 1020.63 761.83 1032.27 741.68"/><polygon class="cls-2" points="937.3 749.86 925 749.86 964.64 818.51 1053.35 818.5 1090.79 753.66 1090.79 729.7 1058.07 673.03 1051.26 684.82 1051.15 685.01 1083.88 741.68 1046.44 806.53 971.55 806.53 938.83 749.86 937.3 749.86"/><polygon class="cls-2" points="480.76 1033.21 466.93 1033.22 490.2 1073.53 546.2 1073.53 574.2 1025.03 550.92 984.72 544.01 996.7 560.37 1025.04 539.28 1061.55 497.12 1061.55 480.76 1033.21"/><polygon class="cls-2" points="971.55 749.86 957.72 749.86 981 790.17 1036.99 790.17 1064.99 741.67 1041.71 701.36 1034.8 713.34 1051.16 741.68 1030.08 778.19 987.91 778.2 971.55 749.86"/><polygon class="cls-2" points="1083.87 628.34 1090.79 640.32 1090.79 616.36 1084.23 627.71 1083.87 628.34"/><polygon class="cls-2" points="831.22 733.5 758.87 608.18 605.52 608.18 604.72 608.18 578.84 653.01 527.65 741.68 600 867 606.26 856.16 606.92 855.02 541.47 741.68 611.63 620.16 751.96 620.16 817.4 733.5 831.22 733.5"/><polygon class="cls-2" points="838.48 883.36 882.84 960.19 971.55 960.19 1011.19 891.53 997.35 891.53 964.64 948.21 889.75 948.21 852.31 883.36 885.03 826.69 878.12 814.71 838.48 883.36"/><polygon class="cls-2" points="938.83 903.51 945.75 891.53 922.47 891.53 910.83 871.38 903.92 883.36 915.56 903.51 938.83 903.51"/><polygon class="cls-2" points="894.48 843.05 871.2 883.36 899.2 931.85 955.19 931.85 978.47 891.53 964.64 891.54 948.28 919.88 906.11 919.87 885.03 883.36 901.39 855.02 894.48 843.05"/><polygon class="cls-2" points="228.45 1016.86 242.28 1016.86 219 976.55 163.01 976.55 135.01 1025.04 158.29 1065.36 165.21 1053.37 148.84 1025.04 169.92 988.52 212.09 988.52 228.45 1016.86"/><polygon class="cls-2" points="757.96 733.5 765.79 733.5 726.15 664.85 637.44 664.86 593.08 741.68 632.72 810.33 639.4 798.77 639.63 798.36 606.91 741.68 644.36 676.83 719.24 676.83 751.96 733.5 757.96 733.5"/><polygon class="cls-2" points="1067.52 656.67 1090.79 696.98 1090.79 673.03 1074.43 644.69 1067.52 656.67"/><polygon class="cls-2" points="798.51 733.5 742.52 636.52 621.08 636.52 560.36 741.68 616.36 838.66 623.28 826.69 574.19 741.68 627.99 648.5 735.6 648.49 784.68 733.5 798.51 733.5"/><polygon class="cls-2" points="658.52 741.68 665.44 753.66 677.08 733.5 700.35 733.5 693.43 721.52 670.16 721.52 658.52 741.68"/><polygon class="cls-2" points="719.24 733.5 733.07 733.5 709.79 693.19 653.8 693.19 625.81 741.68 649.08 782 656 770.01 639.63 741.68 660.72 705.17 702.88 705.17 719.24 733.5"/><polygon class="cls-2" points="805.77 883.36 866.48 988.52 987.91 988.52 1043.91 891.53 1030.07 891.53 981 976.55 873.4 976.54 819.6 883.36 868.67 798.35 861.76 786.37 805.77 883.36"/><polygon class="cls-2" points="324.08 494.84 212.09 494.83 151.37 600 212.09 705.17 324.08 705.17 317.16 693.18 219 693.18 165.2 600 219.01 506.81 317.16 506.81 324.08 494.84"/><polygon class="cls-2" points="340.44 466.5 317.16 466.5 303.33 466.5 303.33 466.5 275.7 466.5 195.73 466.5 174.65 503.01 118.66 600 195.73 733.5 340.44 733.5 333.52 721.52 202.64 721.53 132.48 600 202.65 478.48 333.52 478.48 340.44 466.5"/><polygon class="cls-2" points="307.72 523.17 228.45 523.17 184.09 600 228.45 676.83 307.72 676.83 300.81 664.86 235.36 664.86 197.92 600 235.36 535.15 300.8 535.15 307.72 523.17"/><polygon class="cls-2" points="116.13 571.66 109.21 559.68 109.21 583.64 115.47 572.8 116.13 571.66"/><polygon class="cls-2" points="291.36 551.51 244.81 551.51 216.81 600 244.81 648.5 291.36 648.5 284.44 636.51 251.73 636.52 230.64 600 251.72 563.49 284.44 563.49 291.36 551.51"/><polygon class="cls-2" points="894.63 106.04 892.28 110.11 971.55 110.11 1015.9 33.28 1002.08 33.28 964.64 98.13 899.19 98.13 894.63 106.04"/><polygon class="cls-2" points="132.48 543.33 109.21 503.02 109.21 526.97 125.57 555.3 132.48 543.33"/><polygon class="cls-2" points="167.73 458.32 174.65 470.3 186.29 450.14 209.56 450.14 202.64 438.17 179.37 438.17 167.73 458.32"/><polygon class="cls-2" points="349.88 749.86 272.81 749.86 195.73 749.86 154.81 820.74 123.38 875.18 131.57 875.18 137.21 875.18 202.64 761.83 342.96 761.83 413.13 883.36 347.69 996.7 354.6 1008.68 426.95 883.36 405.88 846.85 383.26 807.68 373.15 790.17 373.15 790.18 349.88 749.86"/><polygon class="cls-2" points="228.45 450.14 242.28 450.14 219 409.83 163.01 409.83 135.01 458.32 158.29 498.64 165.21 486.65 148.84 458.32 169.92 421.81 212.09 421.81 228.45 450.14"/><polygon class="cls-2" points="417.85 931.85 464.4 931.85 492.39 883.36 464.4 834.87 417.85 834.87 424.77 846.85 457.49 846.84 478.57 883.36 457.49 919.87 424.76 919.87 417.85 931.85"/><polygon class="cls-2" points="403.84 956.12 401.49 960.19 480.76 960.18 525.11 883.36 480.76 806.53 401.49 806.53 406.85 815.81 408.41 818.51 473.85 818.5 511.29 883.36 473.85 948.21 408.4 948.21 403.84 956.12"/><polygon class="cls-2" points="385.13 988.52 497.12 988.52 557.84 883.36 497.12 778.19 385.13 778.19 392.05 790.17 490.2 790.17 544.01 883.36 490.2 976.54 392.05 976.54 385.13 988.52"/><polygon class="cls-2" points="448.04 903.51 459.68 883.36 448.04 863.2 434.21 863.2 445.85 883.36 434.21 903.51 448.04 903.51"/><polygon class="cls-2" points="261.17 579.85 249.53 600 261.17 620.16 275 620.16 263.36 600 263.36 600 275 579.85 261.17 579.85"/><polygon class="cls-2" points="305.52 356.95 328.8 316.64 300.8 268.15 244.81 268.15 221.53 308.46 235.37 308.46 251.72 280.13 293.89 280.13 314.97 316.64 298.61 344.98 305.52 356.95"/><polygon class="cls-2" points="361.52 316.64 317.16 239.81 228.45 239.81 188.81 308.46 202.64 308.46 235.36 251.79 310.25 251.79 347.69 316.64 314.97 373.31 321.88 385.29 361.52 316.64"/><polygon class="cls-2" points="394.23 316.64 333.52 211.48 212.09 211.48 156.09 308.46 169.93 308.46 219 223.45 326.6 223.46 380.4 316.64 331.33 401.65 338.24 413.63 394.23 316.64"/><polygon class="cls-2" points="261.17 296.49 254.25 308.46 277.53 308.46 289.16 328.62 296.08 316.64 284.44 296.49 261.17 296.49"/><polygon class="cls-2" points="786.87 1166.71 775.23 1146.56 751.96 1146.56 745.04 1158.54 768.32 1158.54 773.04 1166.72 786.87 1166.72 786.87 1166.71"/><polygon class="cls-2" points="742.51 1130.2 784.68 1130.2 805.76 1166.71 805.76 1166.72 819.59 1166.72 819.59 1166.71 791.59 1118.22 735.6 1118.22 712.32 1158.54 726.16 1158.54 742.51 1130.2"/><polygon class="cls-2" points="307.72 110.11 300.81 98.14 235.36 98.14 197.92 33.28 197.92 33.28 184.09 33.28 184.09 33.29 228.45 110.11 307.72 110.11"/><polygon class="cls-2" points="324.08 138.45 317.16 126.47 219 126.47 165.2 33.28 165.2 33.28 151.38 33.28 151.37 33.28 212.09 138.45 324.08 138.45"/><polygon class="cls-2" points="251.73 69.8 230.64 33.28 230.64 33.28 216.81 33.28 216.81 33.28 244.81 81.78 291.36 81.78 284.44 69.8 251.73 69.8"/><polygon class="cls-2" points="135.02 174.96 109.21 219.66 109.21 243.61 148.84 174.96 109.21 106.31 109.21 130.26 135.02 174.96"/><polygon class="cls-2" points="340.44 166.78 333.52 154.8 202.64 154.81 132.48 33.29 132.49 33.28 118.66 33.28 195.73 166.78 340.44 166.78"/><polygon class="cls-2" points="436.4 166.78 513.48 166.78 585.83 41.46 572 41.46 506.56 154.81 366.24 154.81 296.08 33.28 282.25 33.28 359.33 166.78 436.4 166.78"/><polygon class="cls-2" points="719.24 1089.89 679.61 1158.54 693.43 1158.54 726.15 1101.86 801.04 1101.86 838.48 1166.71 838.48 1166.72 852.31 1166.72 807.95 1089.89 719.24 1089.89"/><polygon class="cls-2" points="167.74 174.96 109.21 276.33 109.21 300.28 137.87 250.64 181.56 174.96 109.21 49.65 109.21 73.61 167.74 174.96"/><polygon class="cls-2" points="249.53 33.28 261.17 53.44 275 53.44 263.36 33.28 249.53 33.28 249.53 33.28"/><polygon class="cls-2" points="917.75 600 896.67 563.49 874.05 524.32 863.94 506.82 863.95 506.82 840.67 466.5 763.6 466.5 686.52 466.5 645.6 537.38 614.17 591.82 622.36 591.82 628 591.82 693.43 478.48 833.75 478.48 903.92 600 838.48 713.34 845.39 725.32 917.75 600"/><polygon class="cls-2" points="751.96 579.84 745.04 591.82 768.32 591.82 779.95 611.98 786.87 600 775.23 579.84 751.96 579.84"/><polygon class="cls-2" points="938.83 620.15 950.47 600 938.83 579.84 925.01 579.84 936.64 600 925 620.15 938.83 620.15"/><polygon class="cls-2" points="852.31 600 807.95 523.17 719.24 523.17 679.61 591.82 693.43 591.82 726.15 535.15 801.04 535.15 838.48 600 805.76 656.67 812.67 668.65 852.31 600"/><polygon class="cls-2" points="875.92 705.16 987.91 705.16 1048.62 600 987.91 494.83 875.92 494.83 882.84 506.82 981 506.81 1034.8 600 981 693.18 882.84 693.18 875.92 705.16"/><polygon class="cls-2" points="896.67 733.5 948.28 733.5 962.11 733.5 1004.27 733.5 1049.66 654.88 1058.07 640.31 1058.07 640.31 1081.34 600 1054.08 552.77 1004.27 466.5 859.57 466.5 863.56 473.42 866.48 478.48 997.35 478.47 1067.51 600 997.36 721.52 866.48 721.52 859.57 733.5 882.84 733.5 896.67 733.5"/><polygon class="cls-2" points="1069.71 846.84 1090.79 810.33 1090.79 786.38 1062.8 834.86 955.19 834.86 906.11 749.86 892.28 749.86 948.28 846.84 1069.71 846.84"/><polygon class="cls-2" points="908.64 648.49 955.19 648.49 983.19 600 955.19 551.51 908.64 551.51 915.56 563.49 948.28 563.48 969.36 600 948.28 636.51 915.56 636.51 908.64 648.49"/><polygon class="cls-2" points="894.63 672.76 892.28 676.83 971.55 676.83 1015.9 600 971.55 523.17 892.28 523.17 897.64 532.45 899.2 535.15 964.64 535.14 1002.08 600 964.64 664.85 899.19 664.85 894.63 672.76"/><polygon class="cls-2" points="824.31 494.83 702.88 494.83 646.89 591.82 660.72 591.82 709.79 506.81 817.4 506.81 871.2 600 822.12 685 829.03 696.98 885.02 600 824.31 494.83"/><polygon class="cls-2" points="950.47 1166.71 938.83 1146.56 925.01 1146.56 936.64 1166.72 950.47 1166.72 950.47 1166.71"/><polygon class="cls-2" points="875.92 1061.55 882.84 1073.53 981 1073.53 1034.8 1166.71 1034.8 1166.72 1048.62 1166.72 1048.62 1166.71 987.91 1061.55 875.92 1061.55"/><polygon class="cls-2" points="892.28 1089.89 897.64 1099.17 899.2 1101.87 964.64 1101.86 1002.08 1166.71 1002.08 1166.72 1015.9 1166.72 1015.9 1166.71 971.55 1089.89 892.28 1089.89"/><polygon class="cls-2" points="1090.79 1037.02 1090.79 1013.06 1083.88 1025.04 1090.79 1037.02"/><polygon class="cls-2" points="875.92 138.44 987.91 138.44 1048.62 33.28 1034.8 33.28 981 126.47 882.84 126.47 875.92 138.44"/><polygon class="cls-2" points="1064.99 1025.04 1090.79 980.34 1090.79 956.39 1051.15 1025.04 1090.79 1093.69 1090.79 1069.73 1064.99 1025.04"/><polygon class="cls-2" points="824.31 1061.55 702.88 1061.55 646.89 1158.54 660.72 1158.54 709.79 1073.53 817.4 1073.53 871.2 1166.72 885.02 1166.72 824.31 1061.55"/><polygon class="cls-2" points="1054.08 1119.49 1004.27 1033.22 859.57 1033.22 863.56 1040.14 866.48 1045.2 997.35 1045.19 1067.51 1166.71 1067.51 1166.72 1081.34 1166.72 1081.34 1166.71 1054.08 1119.49"/><polygon class="cls-2" points="948.28 1130.2 969.36 1166.71 969.36 1166.72 983.18 1166.72 983.19 1166.71 955.19 1118.22 908.64 1118.22 915.56 1130.2 948.28 1130.2"/><polygon class="cls-2" points="1032.26 1025.04 1090.79 923.67 1090.79 899.71 1060.49 952.2 1018.44 1025.04 1090.79 1150.35 1090.79 1126.4 1032.26 1025.04"/><polygon class="cls-2" points="751.96 863.2 740.33 883.36 751.96 903.52 765.79 903.52 754.16 883.36 754.15 883.36 765.79 863.2 751.96 863.2"/><polygon class="cls-2" points="672.35 1025.03 600 899.72 593.44 911.07 593.08 911.7 658.53 1025.04 588.37 1146.56 448.04 1146.56 382.6 1033.22 368.77 1033.22 441.13 1158.53 595.28 1158.53 628.66 1100.72 672.35 1025.03"/><polygon class="cls-2" points="831.22 1016.85 824.32 1004.88 693.43 1004.88 623.28 883.36 693.44 761.84 824.31 761.84 831.23 749.86 807.95 749.86 794.12 749.86 794.13 749.87 766.49 749.86 686.52 749.86 665.44 786.37 609.45 883.36 686.52 1016.85 831.22 1016.85"/><polygon class="cls-2" points="413.13 1166.72 426.96 1166.72 420.05 1154.74 413.13 1166.72"/><polygon class="cls-2" points="927.2 1016.86 1004.27 1016.85 1076.62 891.53 1062.79 891.53 997.36 1004.88 857.03 1004.88 786.87 883.36 852.31 770.01 845.4 758.04 773.05 883.36 850.12 1016.86 927.2 1016.86"/><polygon class="cls-2" points="1090.79 867 1090.79 843.05 1079.16 863.2 938.83 863.2 873.39 749.86 859.57 749.86 931.92 875.17 1086.07 875.17 1090.79 867"/><polygon class="cls-2" points="814.87 778.2 702.88 778.2 642.17 883.36 702.88 988.52 814.87 988.52 807.96 976.54 709.79 976.54 655.99 883.36 709.8 790.17 807.95 790.17 814.87 778.2"/><polygon class="cls-2" points="798.51 806.53 719.24 806.53 674.88 883.36 719.24 960.19 798.51 960.19 791.6 948.21 726.15 948.21 688.71 883.36 726.15 818.51 791.6 818.51 798.51 806.53"/><polygon class="cls-2" points="782.15 834.87 735.6 834.87 707.61 883.36 735.6 931.85 782.15 931.85 775.24 919.87 742.52 919.88 721.43 883.36 742.52 846.85 775.24 846.84 782.15 834.87"/><polygon class="cls-2" points="874.05 1091.04 863.94 1073.53 863.95 1073.54 840.67 1033.21 763.6 1033.21 686.52 1033.22 645.6 1104.09 614.17 1158.54 622.36 1158.54 628 1158.54 693.43 1045.19 833.75 1045.19 903.92 1166.72 917.75 1166.72 896.67 1130.21 874.05 1091.04"/><polygon class="cls-2" points="1090.79 526.97 1090.79 503.01 1064.99 458.32 1090.79 413.63 1090.79 389.67 1051.15 458.32 1090.79 526.97"/><polygon class="cls-2" points="819.59 33.28 805.76 33.28 789.4 61.62 796.31 73.59 819.59 33.28"/><polygon class="cls-2" points="1090.79 300.28 1090.79 276.33 1079.16 296.48 938.83 296.48 873.39 183.14 859.57 183.14 931.92 308.46 1086.07 308.46 1090.79 300.28"/><polygon class="cls-2" points="814.87 211.48 702.88 211.48 642.17 316.64 702.88 421.81 814.87 421.81 807.96 409.83 709.79 409.83 655.99 316.64 709.8 223.45 807.95 223.46 814.87 211.48"/><polygon class="cls-2" points="796.31 640.31 819.59 600 791.59 551.51 735.6 551.51 712.32 591.82 726.16 591.82 742.51 563.49 784.68 563.49 805.76 600 789.4 628.34 796.31 640.31"/><polygon class="cls-2" points="805.77 316.64 866.48 421.81 987.91 421.81 1043.91 324.82 1030.07 324.82 981 409.83 873.4 409.83 819.6 316.64 868.67 231.63 861.76 219.66 805.77 316.64"/><polygon class="cls-2" points="782.15 268.15 735.6 268.15 707.61 316.64 735.6 365.14 782.15 365.14 775.24 353.15 742.52 353.16 721.43 316.64 742.52 280.13 775.24 280.13 782.15 268.15"/><polygon class="cls-2" points="798.51 239.81 719.24 239.81 674.88 316.64 719.24 393.47 798.51 393.47 791.6 381.5 726.15 381.5 688.71 316.64 726.15 251.79 791.6 251.79 798.51 239.81"/><polygon class="cls-2" points="751.96 296.49 740.33 316.64 751.96 336.8 765.79 336.8 754.16 316.64 754.15 316.64 765.79 296.49 751.96 296.49"/><polygon class="cls-2" points="852.31 33.28 838.48 33.28 805.76 89.95 812.67 101.93 852.31 33.28"/><polygon class="cls-2" points="892.28 183.14 948.28 280.12 1069.71 280.12 1090.79 243.61 1090.79 219.66 1062.8 268.15 955.19 268.15 906.11 183.14 892.28 183.14"/><polygon class="cls-2" points="1067.52 89.95 1090.79 130.26 1090.79 106.31 1074.43 77.97 1067.52 89.95"/><polygon class="cls-2" points="1090.79 470.3 1090.79 446.34 1083.88 458.32 1090.79 470.3"/><polygon class="cls-2" points="838.48 316.64 882.84 393.47 971.55 393.47 1011.19 324.82 997.35 324.82 964.64 381.49 889.75 381.49 852.31 316.64 885.03 259.97 878.12 247.99 838.48 316.64"/><polygon class="cls-2" points="1090.79 49.64 1084.23 60.99 1083.87 61.62 1090.79 73.6 1090.79 49.64"/><polygon class="cls-2" points="845.39 158.6 917.75 33.28 903.92 33.28 838.48 146.63 845.39 158.6"/><polygon class="cls-2" points="938.83 336.8 945.75 324.82 922.47 324.82 910.83 304.67 903.92 316.64 915.56 336.8 938.83 336.8"/><polygon class="cls-2" points="894.48 276.33 871.2 316.64 899.2 365.13 955.19 365.13 978.47 324.82 964.64 324.82 948.28 353.16 906.11 353.16 885.03 316.64 901.39 288.31 894.48 276.33"/><polygon class="cls-2" points="896.67 166.78 948.28 166.78 962.11 166.78 1004.27 166.78 1049.66 88.17 1058.07 73.59 1058.07 73.59 1081.34 33.28 1067.51 33.28 997.36 154.8 866.48 154.81 859.57 166.78 882.84 166.78 896.67 166.78"/><polygon class="cls-2" points="885.02 33.28 885.02 33.28 871.2 33.28 871.2 33.28 822.12 118.29 829.03 130.27 885.02 33.28"/><polygon class="cls-2" points="385.13 421.8 497.12 421.8 557.84 316.64 497.12 211.47 385.13 211.48 392.05 223.46 490.2 223.45 544.01 316.64 490.2 409.83 392.05 409.83 385.13 421.8"/><polygon class="cls-2" points="272.81 183.14 195.73 183.14 154.81 254.02 123.38 308.46 131.57 308.46 137.21 308.46 202.64 195.12 342.96 195.12 413.13 316.64 347.69 429.98 354.6 441.96 426.95 316.64 405.88 280.13 383.26 240.96 373.15 223.46 373.15 223.46 349.88 183.14 272.81 183.14"/><polygon class="cls-2" points="113.93 324.82 109.21 333 109.21 356.95 120.84 336.8 261.17 336.8 326.61 450.14 340.43 450.14 268.08 324.82 114.73 324.82 113.93 324.82"/><polygon class="cls-2" points="403.84 389.4 401.49 393.47 480.76 393.47 525.11 316.64 480.76 239.81 401.49 239.81 406.85 249.09 408.41 251.79 473.85 251.79 511.29 316.64 473.85 381.49 408.4 381.49 403.84 389.4"/><polygon class="cls-2" points="380.41 1166.72 394.24 1166.72 410.6 1138.38 403.69 1126.41 380.41 1166.72"/><polygon class="cls-2" points="347.69 1166.71 347.69 1166.72 361.52 1166.72 394.24 1110.05 387.32 1098.07 347.69 1166.71"/><polygon class="cls-2" points="314.97 1166.71 314.97 1166.72 328.8 1166.72 328.8 1166.71 377.88 1081.71 370.96 1069.73 314.97 1166.71"/><polygon class="cls-2" points="109.21 162.99 109.21 186.94 116.12 174.96 109.21 162.99"/><polygon class="cls-2" points="417.85 365.13 464.4 365.13 492.39 316.64 464.4 268.15 417.85 268.15 424.77 280.13 457.49 280.12 478.57 316.64 457.49 353.15 424.76 353.15 417.85 365.13"/><polygon class="cls-2" points="1090.79 559.68 1032.26 458.32 1090.79 356.95 1090.79 333 1060.49 385.48 1018.44 458.32 1090.79 583.63 1090.79 559.68"/><polygon class="cls-2" points="480.76 110.11 520.4 41.46 506.56 41.46 473.85 98.14 398.96 98.14 361.52 33.28 347.69 33.28 392.05 110.11 480.76 110.11"/><polygon class="cls-2" points="375.69 138.45 497.12 138.45 553.12 41.46 539.28 41.46 490.2 126.47 382.6 126.47 328.8 33.28 314.97 33.28 375.69 138.45"/><polygon class="cls-2" points="457.49 69.8 415.32 69.8 394.24 33.28 380.41 33.28 408.41 81.78 464.4 81.78 487.68 41.46 473.84 41.46 457.49 69.8"/><polygon class="cls-2" points="448.04 336.8 459.68 316.64 448.04 296.48 434.21 296.48 445.85 316.64 434.21 336.79 448.04 336.8"/><polygon class="cls-2" points="927.2 450.14 1004.27 450.14 1076.62 324.82 1062.79 324.82 997.36 438.17 857.03 438.17 786.87 316.64 852.31 203.3 845.4 191.32 773.05 316.64 850.12 450.14 927.2 450.14"/><polygon class="cls-2" points="413.13 33.28 424.77 53.44 448.04 53.44 454.96 41.46 431.68 41.46 426.96 33.28 413.13 33.28 413.13 33.28"/><polygon class="cls-2" points="368.78 183.14 372.76 190.06 375.69 195.12 506.56 195.12 576.72 316.64 506.56 438.16 375.69 438.17 368.77 450.14 392.05 450.14 405.88 450.14 457.49 450.14 471.31 450.14 513.48 450.14 558.87 371.52 567.28 356.95 567.28 356.95 590.55 316.64 563.29 269.42 513.48 183.14 368.78 183.14"/><polygon class="cls-2" points="527.65 174.96 600 300.28 606.26 289.44 606.92 288.3 541.47 174.96 611.63 53.44 751.96 53.44 817.4 166.78 831.22 166.78 758.87 41.47 605.52 41.46 604.72 41.46 578.84 86.29 527.65 174.96"/><polygon class="cls-2" points="786.87 33.28 773.04 33.28 779.95 45.26 786.87 33.28"/></svg>