<?xml version="1.0" standalone="no"?>
<!DOCTYPE svg PUBLIC "-//W3C//DTD SVG 20010904//EN"
 "http://www.w3.org/TR/2001/REC-SVG-20010904/DTD/svg10.dtd">
<svg version="1.0" xmlns="http://www.w3.org/2000/svg"
 width="700.000000pt" height="700.000000pt" viewBox="0 0 700.000000 700.000000"
 preserveAspectRatio="xMidYMid meet">
<metadata>
Created by potrace 1.14, written by Peter Selinger 2001-2017
</metadata>
<g transform="translate(0.000000,700.000000) scale(0.100000,-0.100000)"
fill="#000000" stroke="none">
<path d="M3465 6196 c-11 -7 -40 -24 -65 -38 -25 -14 -89 -50 -142 -81 -54
-32 -142 -82 -195 -114 -54 -31 -138 -80 -188 -108 -49 -29 -209 -121 -355
-205 -290 -167 -314 -181 -380 -218 -25 -14 -56 -33 -70 -42 -14 -9 -38 -24
-55 -32 -16 -8 -115 -65 -220 -125 -104 -61 -271 -157 -370 -215 l-180 -104 0
-1308 0 -1308 45 -25 c25 -14 90 -51 145 -83 55 -32 116 -67 135 -78 19 -10
91 -52 160 -92 68 -40 140 -82 160 -93 19 -11 226 -130 460 -265 234 -135 476
-275 538 -310 l112 -64 48 38 c173 140 276 332 311 580 6 44 14 94 17 111 l5
33 135 -1 136 0 -6 -48 c-27 -224 -110 -440 -224 -582 -69 -87 -114 -129 -198
-185 l-61 -41 136 -79 c75 -43 151 -87 169 -97 l34 -18 341 197 c188 108 356
205 372 214 92 53 262 151 275 160 8 5 42 24 75 43 54 30 388 224 468 271 18
10 52 30 77 44 25 14 99 57 165 95 66 38 202 116 303 174 l182 105 -2 1306 -3
1306 -89 53 c-49 29 -90 53 -92 53 -3 0 -100 56 -218 125 -118 68 -231 134
-252 146 -22 12 -76 43 -122 70 -45 27 -87 49 -92 49 -6 0 -10 5 -10 10 0 6
-4 10 -9 10 -5 0 -128 69 -274 153 -145 85 -271 157 -278 160 -8 4 -27 15 -44
26 -16 10 -138 80 -270 156 -132 76 -268 155 -302 176 -34 22 -65 39 -67 39
-3 0 -32 16 -65 35 -66 39 -78 41 -106 21z m130 -950 c61 -3 162 -14 225 -25
109 -20 352 -81 395 -100 11 -5 49 -20 85 -34 l65 -25 3 -161 c2 -153 2 -161
-17 -161 -10 0 -30 15 -44 33 -77 101 -238 228 -338 267 -78 29 -224 68 -294
77 -109 14 -373 8 -453 -10 -417 -98 -624 -367 -524 -684 33 -104 112 -192
257 -284 49 -32 207 -109 223 -109 6 0 23 -5 37 -12 25 -11 25 -12 25 -135 0
-67 -2 -123 -5 -123 -14 0 -267 106 -338 141 -131 65 -258 169 -334 272 -41
56 -90 168 -101 229 -11 69 -7 219 7 273 69 262 319 465 662 540 98 21 115 23
224 31 50 4 91 8 93 9 2 2 11 1 20 -1 9 -1 67 -5 127 -8z m86 -383 c0 -5 1
-232 2 -507 l2 -499 140 -47 c354 -119 511 -203 668 -358 107 -105 164 -215
186 -356 53 -359 -229 -696 -695 -829 -91 -26 -115 -31 -244 -48 -168 -22
-544 -4 -728 35 -169 36 -385 128 -547 231 l-51 32 0 162 c-1 151 0 161 18
161 10 0 26 -10 36 -22 117 -145 204 -236 279 -290 119 -85 339 -169 483 -183
115 -12 160 -12 167 -2 3 5 6 573 6 1261 0 688 2 1254 4 1259 2 4 65 7 139 7
74 0 134 -3 135 -7z"/>
<path d="M3687 3612 c-2 -4 -5 -266 -6 -582 -1 -316 -2 -600 -4 -630 -1 -30 1
-58 6 -61 12 -9 223 26 282 46 316 108 508 324 507 570 -2 218 -136 389 -412
526 -85 42 -368 141 -373 131z"/>
</g>
</svg>
